<svg width="22" height="21" viewBox="0 0 22 21" fill="none" xmlns="http://www.w3.org/2000/svg">
<g clip-path="url(#clip0_284_59)">
<path d="M16.9127 8.79133C17.1045 9.15682 17.1689 9.54667 17.1631 9.94994H14.391C14.5594 8.86512 15.0054 8.20349 15.8903 8.22339C16.405 8.22339 16.7458 8.41296 16.9127 8.79133ZM6.71256 10.268H9.07515L7.84841 5.63362C7.69436 6.68186 7.15414 8.4678 6.71256 10.268ZM21.95 0V21H0.949951V0H21.95ZM12.2052 14.9932L8.95735 4.0434H6.71256C6.71256 4.28621 6.69698 4.55101 6.66712 4.65679C6.6366 4.76327 6.62167 4.86125 6.62167 4.9521L3.75279 14.9932H5.45019L6.25819 11.9036H9.43867L10.3281 14.9932H12.2052ZM18.8436 10.0408C18.8436 9.31383 18.6313 8.58691 18.2076 7.85995C17.7831 7.13299 17.0262 6.76951 15.9358 6.76951C14.8752 6.76951 14.0503 7.18622 13.4596 8.01896C12.3454 9.48827 12.2292 12.2637 13.4142 13.88C13.9743 14.7135 14.9057 15.1295 16.2084 15.1295C16.9218 15.1277 17.602 15.0417 18.2075 14.766C18.2782 14.6932 18.2964 14.6587 18.2984 14.5388V13.3121C18.2964 13.227 18.2497 13.2235 18.1621 13.2213C17.2756 13.6545 15.9869 13.6391 15.335 13.2632C14.7284 12.9134 14.3717 12.1824 14.391 11.313H16.9808C17.4352 11.313 17.7986 11.3059 18.0712 11.2903C18.3439 11.2754 18.5404 11.2526 18.6619 11.2221C18.6917 11.2221 18.7144 11.215 18.73 11.1994L18.7982 11.1312C18.7982 11.0404 18.8053 10.8969 18.8209 10.6996C18.8358 10.503 18.8436 10.2836 18.8436 10.0408Z" fill="#111111"/>
</g>
<defs>
<clipPath id="clip0_284_59">
<rect x="0.949951" width="21" height="21" rx="3" fill="white"/>
</clipPath>
</defs>
</svg>
