<svg width="21" height="21" viewBox="0 0 21 21" fill="none" xmlns="http://www.w3.org/2000/svg">
<path fill-rule="evenodd" clip-rule="evenodd" d="M6.95863 5.62226L8.10411 10.1086H5.84181L6.95867 5.62226H6.95863ZM21 0V21H0V0H21ZM11.1286 14.6236L8.01855 4.12363H5.86441C5.84263 4.65888 5.81003 4.7784 5.75593 4.97319L2.99447 14.6236H4.65429L5.44093 11.6836H8.505L9.31571 14.6236H11.1286H11.1286ZM17.7832 9.53593C17.7832 6.52317 15.1971 6.13024 11.9369 7.3728C11.9847 7.92647 11.9986 8.34274 11.9986 8.43819V14.6332H13.7646V8.41907C15.1928 8.02184 16.1401 8.24045 16.1127 9.66956V14.6236H17.7832V9.53593Z" fill="#111111"/>
</svg>
