<svg width="21" height="19" viewBox="0 0 21 19" fill="none" xmlns="http://www.w3.org/2000/svg">
<path d="M10.9483 10.5631C10.9857 9.86225 11.3309 9.2434 11.8467 8.80634C12.3915 8.35563 13.0776 8.1112 13.7846 8.11596C14.5268 8.11596 15.21 8.37912 15.7192 8.80634C16.2357 9.24406 16.5769 9.86225 16.6176 10.5631C16.655 11.2804 16.3682 11.9511 15.859 12.4459C15.3007 12.9791 14.5566 13.2736 13.7846 13.2669C13.0104 13.2741 12.2638 12.9796 11.703 12.4459C11.197 11.9504 10.9069 11.2804 10.9476 10.5631H10.9483ZM6.43328 11.978C6.4359 12.2516 6.52515 12.7845 6.65444 13.2012C6.93767 14.0967 7.41368 14.9193 8.04897 15.611C8.72941 16.3597 9.55956 16.9571 10.4856 17.3645C11.4949 17.8081 12.5863 18.0342 13.6888 18.028C14.7917 18.0313 15.8829 17.8021 16.8913 17.3553C17.8166 16.9434 18.6463 16.3438 19.3279 15.5946C19.9607 14.8988 20.4353 14.0743 20.7192 13.1776C20.9926 12.3087 21.0673 11.3894 20.9377 10.4876C20.8155 9.62409 20.5125 8.79603 20.0485 8.05756C19.6208 7.36868 19.0719 6.76302 18.4282 6.26993L11.8526 1.21746C11.4221 0.886058 10.6976 0.889339 10.2257 1.21746C9.74734 1.55281 9.69222 2.10668 10.1155 2.45843L12.8507 4.68378L4.50062 4.69428C3.80959 4.69428 3.15072 5.14512 3.01684 5.72C2.88362 6.30078 3.34825 6.78312 4.06619 6.78575L8.2944 6.77984L0.720623 12.5896C0.00990443 13.133 -0.219127 14.0419 0.229092 14.6135C0.683217 15.1982 1.65119 15.1982 2.37175 14.6168L6.48709 11.2496C6.48709 11.2496 6.42606 11.7043 6.43262 11.9773L6.43328 11.978ZM17.0107 13.4985C16.1602 14.3641 14.9737 14.8556 13.6894 14.8556C12.4038 14.8589 11.2141 14.3733 10.3668 13.5123C9.96615 13.1088 9.65704 12.6238 9.46056 12.0902C9.28076 11.5888 9.20977 11.0548 9.25232 10.5238C9.29486 9.99274 9.44996 9.47686 9.70731 9.01043C9.96424 8.55028 10.3063 8.14318 10.7153 7.81081C11.5396 7.14143 12.5889 6.77918 13.6894 6.7759C14.786 6.7759 15.836 7.13487 16.659 7.80424C17.0698 8.13367 17.4123 8.54031 17.667 9.00124C17.9236 9.45865 18.0811 9.9679 18.1257 10.4949C18.1733 11.0312 18.1023 11.5713 17.9177 12.0771C17.7198 12.61 17.4109 13.0948 17.0114 13.4992L17.0107 13.4985Z" fill="#111111"/>
</svg>
