<svg width="22" height="21" viewBox="0 0 22 21" fill="none" xmlns="http://www.w3.org/2000/svg">
<g clip-path="url(#clip0_284_61)">
<path d="M7.51416 0H9.76991V0.94325H8.45741V1.8865H9.76991V2.82975H7.51416V0ZM10.2205 0H12.4772V0.82075H11.1647V0.984375H12.4772V2.87087H10.2205V2.00987H11.533V1.84537H10.2205V0ZM12.9287 0H15.1835V0.82075H13.871V0.984375H15.1835V2.87087H12.9287V2.00987H14.2412V1.84537H12.9287V0Z" fill="#111111"/>
<path fill-rule="evenodd" clip-rule="evenodd" d="M11.4421 21L5.36608 19.313L3.57495 4.12738H19.325L17.5347 19.3113L11.4421 21ZM7.11608 11.0014L7.2832 12.8634H13.7381L13.522 15.2784L11.4447 15.8401H11.443L9.3692 15.2801L9.2362 13.7953H7.36633L7.62708 16.7195L11.4421 17.7783L15.2632 16.7195L15.7287 11.501L15.7742 11.0014L16.1102 7.23101H6.78095L6.9507 9.09388H14.0697L13.9 11.0014H7.11608Z" fill="#111111"/>
</g>
<defs>
<clipPath id="clip0_284_61">
<rect width="21" height="21" fill="white" transform="translate(0.949951)"/>
</clipPath>
</defs>
</svg>
