<svg width="14" height="21" viewBox="0 0 14 21" fill="none" xmlns="http://www.w3.org/2000/svg">
<g clip-path="url(#clip0_284_57)">
<path d="M3.41885 0H6.82167V6.80572H3.41889C-1.06863 6.6303 -1.11395 0.184242 3.41885 0ZM3.41885 13.9025H6.82167V7.09681H3.41889C-1.11391 7.28105 -1.06863 13.7271 3.41885 13.9025ZM10.5157 0H7.11275V6.80572H10.5157C15.0636 6.56234 15.0069 0.13892 10.5157 0ZM6.82167 17.5965V14.1936H3.41889C0.642048 14.1936 -1.11391 17.4493 0.817307 19.7877C2.65858 22.1054 6.82171 20.9499 6.82171 17.5965H6.82167ZM13.9254 10.4997C13.9254 7.88452 11.0749 6.24122 8.80691 7.5488C6.53886 8.85638 6.53882 12.143 8.80691 13.4506C11.075 14.7582 13.9254 13.1148 13.9254 10.4997Z" fill="#111111"/>
</g>
<defs>
<clipPath id="clip0_284_57">
<rect width="13.95" height="21" fill="white"/>
</clipPath>
</defs>
</svg>
