<svg width="21" height="21" viewBox="0 0 21 21" fill="none" xmlns="http://www.w3.org/2000/svg">
<g clip-path="url(#clip0_284_40)">
<mask id="mask0_284_40" style="mask-type:luminance" maskUnits="userSpaceOnUse" x="0" y="0" width="21" height="21">
<path d="M0 0H21V21H0V0Z" fill="white"/>
</mask>
<g mask="url(#mask0_284_40)">
<path d="M4.44495 0H5.3917V0.935375H6.25795V0H7.2047V2.8315H6.25795V1.88388H5.3917V2.8315H4.44582L4.44495 0ZM8.44895 0.938875H7.61595V0H10.2296V0.938875H9.3957V2.8315H8.44895V0.938875ZM10.6443 0H11.6313L12.2386 0.994875L12.8449 0H13.8319V2.8315H12.8896V1.428L12.2386 2.43512H12.2219L11.5701 1.42888V2.8315H10.6443V0ZM14.3027 0H15.2503V1.89613H16.5803V2.83237H14.3027V0Z" fill="#111111"/>
<path fill-rule="evenodd" clip-rule="evenodd" d="M4.41525 19.313L2.625 4.12738H18.375L16.5839 19.3113L10.4912 21L4.41525 19.313ZM8.03512 11.0005L7.86538 9.09301H14.9923L15.1585 7.23101H5.831L6.33325 12.8634H12.7881L12.572 15.2784L10.4948 15.8401H10.493L8.41925 15.2801L8.28625 13.7953H6.4155L6.67625 16.7195L10.4912 17.7783L14.3124 16.7195L14.7779 11.501L14.8234 11.0014H8.03512V11.0005Z" fill="#111111"/>
</g>
</g>
<defs>
<clipPath id="clip0_284_40">
<rect width="21" height="21" fill="white"/>
</clipPath>
</defs>
</svg>
