<svg width="21" height="21" viewBox="0 0 21 21" fill="none" xmlns="http://www.w3.org/2000/svg">
<path d="M9.21375 9.38875C9.12625 9.1175 9.0475 8.855 8.96 8.58375C8.8725 8.3125 8.79375 8.05875 8.72375 7.805C8.65375 7.56 8.5925 7.3325 8.53125 7.1225H8.51375C8.435 7.49875 8.33875 7.875 8.21625 8.25125C8.085 8.67125 7.95375 9.10875 7.81375 9.54625C7.69125 9.9925 7.56 10.4037 7.42875 10.7712H9.65125C9.59875 10.5866 9.52875 10.3687 9.45 10.1404C9.37125 9.905 9.2925 9.65125 9.21375 9.38875ZM17.2812 0.262497H3.71875C1.6625 0.262497 0 1.925 0 3.98125V17.0187C0 19.075 1.6625 20.7375 3.71875 20.7375H17.2812C19.3375 20.7375 21 19.075 21 17.0187V3.98125C21 1.925 19.3375 0.262497 17.2812 0.262497ZM12.8625 14.7262H11.0329C10.9725 14.735 10.9113 14.6912 10.8938 14.63L10.1763 12.5475H6.92125L6.25625 14.6037C6.23875 14.6825 6.16875 14.735 6.09 14.7271H4.445C4.34875 14.7271 4.3225 14.6737 4.34875 14.5696L7.16625 6.4575C7.1925 6.37 7.21875 6.27375 7.25375 6.16875C7.28875 5.985 7.30625 5.7925 7.30625 5.6C7.2975 5.55625 7.3325 5.5125 7.37625 5.50375H9.6425C9.7125 5.50375 9.7475 5.53 9.75625 5.57375L12.95 14.5862C12.9762 14.6816 12.95 14.7262 12.8625 14.7262ZM15.8375 14.595C15.8375 14.6912 15.8034 14.735 15.7246 14.735H14.0087C13.9213 14.735 13.8775 14.6816 13.8775 14.595V7.8575C13.8775 7.77 13.9134 7.735 13.9921 7.735H15.7246C15.8034 7.735 15.8375 7.77875 15.8375 7.8575V14.595ZM15.6546 6.69375C15.5513 6.79869 15.4267 6.88032 15.2892 6.93314C15.1517 6.98596 15.0045 7.00876 14.8575 7C14.5687 7.00875 14.2888 6.895 14.0779 6.69375C13.8774 6.47455 13.7706 6.18563 13.7804 5.88875C13.7716 5.59125 13.8854 5.31125 14.0945 5.11C14.3062 4.90875 14.5863 4.80375 14.875 4.80375C15.2171 4.80375 15.4779 4.90875 15.6712 5.11C15.8637 5.32 15.9688 5.6 15.96 5.88875C15.9688 6.18625 15.8638 6.475 15.6546 6.69375Z" fill="#111111"/>
</svg>
