<svg width="21" height="21" viewBox="0 0 21 21" fill="none" xmlns="http://www.w3.org/2000/svg">
<path d="M3.71875 0.262497C1.6625 0.262497 0 1.925 0 3.98125V17.0187C0 19.075 1.6625 20.7375 3.71875 20.7375H17.2812C19.3375 20.7375 21 19.075 21 17.0187V3.98125C21 1.925 19.3375 0.262497 17.2812 0.262497H3.71875ZM13.615 4.75125H15.3913C15.435 4.7425 15.47 4.7775 15.4788 4.8125V13.16C15.4788 13.3175 15.4875 13.4925 15.4962 13.685C15.5137 13.8687 15.5225 14.0437 15.5312 14.1925C15.5312 14.2537 15.505 14.3062 15.4437 14.3325C14.9887 14.525 14.5075 14.665 14.0175 14.7525C13.58 14.8312 13.125 14.875 12.67 14.875C12.0225 14.8837 11.375 14.7525 10.7887 14.4812C10.2375 14.2275 9.7825 13.8075 9.4675 13.2912C9.14375 12.7575 8.98625 12.0925 8.98625 11.2962C8.9775 10.6487 9.14375 10.01 9.4675 9.45C9.8 8.88125 10.2812 8.40875 10.8587 8.09375C11.4712 7.7525 12.2062 7.58625 13.0725 7.58625C13.1163 7.58625 13.1775 7.58625 13.2562 7.595C13.335 7.60375 13.4225 7.60375 13.5275 7.6125V4.8475C13.5275 4.78625 13.5538 4.75125 13.615 4.75125ZM5.80125 5.50375H7.5075C7.56 5.495 7.6125 5.53 7.62125 5.59125C7.63 5.6 7.63 5.60875 7.63 5.6175V14.595C7.63 14.6912 7.58625 14.735 7.5075 14.735H5.7925C5.71375 14.735 5.67875 14.6912 5.67875 14.595V5.6175C5.67875 5.53875 5.7225 5.50375 5.80125 5.50375ZM13.0025 9.21375C12.6613 9.21375 12.32 9.28375 12.0138 9.44125C11.7162 9.59 11.4625 9.80875 11.27 10.0887C11.0775 10.3687 10.9812 10.745 10.9812 11.2C10.9725 11.5062 11.025 11.8125 11.13 12.1012C11.2175 12.3375 11.3488 12.5475 11.5238 12.7225C11.69 12.88 11.8913 13.0025 12.1188 13.0725C12.355 13.1512 12.6 13.1862 12.845 13.1862C12.9763 13.1862 13.0988 13.1775 13.2125 13.1687C13.3263 13.1775 13.4312 13.16 13.5275 13.125V9.275C13.3555 9.23392 13.1793 9.21336 13.0025 9.21375Z" fill="#111111"/>
</svg>
