<svg width="21" height="21" viewBox="0 0 21 21" fill="none" xmlns="http://www.w3.org/2000/svg">
<g clip-path="url(#clip0_284_48)">
<path d="M0 0H21V21H0V0ZM19.2806 15.9928C19.1271 15.0321 18.501 14.2288 16.6523 13.4774C16.0099 13.1768 15.2919 12.9649 15.08 12.4793C15.0012 12.1918 14.9874 12.035 15.0386 11.8637C15.1718 11.296 15.8386 11.1287 16.3649 11.2862C16.7068 11.3918 17.0212 11.6517 17.2193 12.0724C18.125 11.4811 18.125 11.4811 18.7543 11.088C18.5187 10.7225 18.4026 10.5617 18.2418 10.4081C17.6912 9.78928 16.9568 9.47494 15.7638 9.5025L15.1449 9.58125C14.5537 9.72497 13.9899 10.0393 13.648 10.46C12.6532 11.5881 12.9406 13.5568 14.1468 14.3738C15.3398 15.2657 17.0861 15.4606 17.3119 16.3019C17.5206 17.3276 16.55 17.6558 15.5892 17.5357C14.8818 17.3782 14.4887 17.0231 14.0543 16.3669L12.4543 17.2863C12.6354 17.7069 12.8474 17.8881 13.1617 18.2569C14.6829 19.7918 18.4905 19.7131 19.1737 17.3782C19.1973 17.2994 19.3823 16.7593 19.2386 15.9357L19.2806 15.9928ZM11.4194 9.65213H9.45394C9.45394 11.3472 9.44344 13.0325 9.44344 14.7315C9.44344 15.8084 9.49791 16.7993 9.324 17.1038C9.03328 17.7056 8.29172 17.6302 7.95309 17.5245C7.60791 17.3539 7.43006 17.1176 7.22859 16.7757C7.17019 16.6832 7.1295 16.6051 7.11572 16.6051L5.51972 17.5895C5.78616 18.1401 6.17597 18.6152 6.67866 18.9157C7.42744 19.3633 8.43216 19.507 9.48478 19.2714C10.1686 19.0732 10.7599 18.6664 11.067 18.0377C11.5146 17.2239 11.4188 16.2264 11.4155 15.1082C11.426 13.3101 11.4155 11.5126 11.4155 9.70069L11.4194 9.65213Z" fill="#111111"/>
</g>
<defs>
<clipPath id="clip0_284_48">
<rect width="21" height="21" rx="3" fill="white"/>
</clipPath>
</defs>
</svg>
