<svg width="21" height="21" viewBox="0 0 21 21" fill="none" xmlns="http://www.w3.org/2000/svg">
<path d="M8.61875 7.3675C8.295 7.23625 7.945 7.18375 7.58625 7.1925C7.35875 7.1925 7.1575 7.1925 6.99125 7.20125C6.81625 7.1925 6.69375 7.20125 6.6325 7.21V10.15C6.755 10.1587 6.86875 10.1675 6.97375 10.1675H7.4375C7.77875 10.1675 8.12 10.115 8.44375 10.01C8.72375 9.93125 8.96875 9.765 9.16125 9.54625C9.345 9.3275 9.4325 9.03 9.4325 8.645C9.44125 8.37375 9.37125 8.1025 9.23125 7.86625C9.08535 7.63906 8.87078 7.46434 8.61875 7.3675ZM17.2812 0.262497H3.71875C1.6625 0.262497 0 1.925 0 3.98125V17.0179C0 19.0741 1.6625 20.7366 3.71875 20.7366H17.2812C19.3375 20.7366 21 19.0741 21 17.0179V3.98125C21 1.925 19.3375 0.262497 17.2812 0.262497ZM10.8141 10.4562C10.465 10.9462 9.975 11.3137 9.40625 11.5237C8.81125 11.7425 8.155 11.8212 7.4375 11.8212C7.2275 11.8212 7.0875 11.8212 7 11.8125C6.9125 11.8037 6.79 11.8037 6.62375 11.8037V14.6116C6.6325 14.6729 6.58875 14.7262 6.5275 14.735H4.83C4.76 14.735 4.725 14.6991 4.725 14.6204V5.6175C4.725 5.55625 4.75125 5.52125 4.8125 5.52125C4.96125 5.52125 5.10125 5.52125 5.3025 5.5125C5.5125 5.50375 5.73125 5.50375 5.9675 5.495C6.20375 5.48625 6.4575 5.48625 6.72875 5.4775C7 5.46875 7.2625 5.46875 7.525 5.46875C8.2425 5.46875 8.8375 5.55625 9.3275 5.74C9.765 5.88875 10.1675 6.13375 10.5 6.4575C10.78 6.7375 10.9987 7.07875 11.1388 7.455C11.2691 7.8225 11.3391 8.19875 11.3391 8.5925C11.34 9.345 11.165 9.96625 10.8141 10.4562ZM17.0188 13.86C16.7738 14.21 16.4316 14.4804 16.0387 14.6396C15.61 14.8225 15.085 14.9179 14.4541 14.9179C14.0525 14.9179 13.6579 14.8837 13.265 14.805C12.9587 14.7516 12.6525 14.6562 12.3725 14.525C12.3113 14.4909 12.2666 14.4296 12.2754 14.3596V12.8371C12.2754 12.8117 12.285 12.7759 12.3112 12.7584C12.3366 12.7409 12.3637 12.7496 12.39 12.7671C12.7312 12.9684 13.09 13.1092 13.475 13.1959C13.8066 13.2834 14.1566 13.3271 14.5075 13.3271C14.84 13.3271 15.0763 13.2825 15.2337 13.2037C15.3737 13.1425 15.47 12.9937 15.47 12.8362C15.47 12.7129 15.4 12.6 15.26 12.4862C15.12 12.3734 14.8321 12.2421 14.4034 12.0741C13.9571 11.9166 13.5468 11.7066 13.1609 11.445C12.8871 11.2489 12.6597 10.995 12.495 10.7012C12.3559 10.4244 12.2871 10.1176 12.2946 9.80787C12.2946 9.43162 12.3996 9.07287 12.593 8.74912C12.8118 8.39912 13.1346 8.11912 13.5109 7.94412C13.9213 7.735 14.4375 7.63875 15.0587 7.63875C15.4175 7.63875 15.785 7.665 16.1438 7.7175C16.4062 7.7525 16.66 7.8225 16.8962 7.91875C16.9304 7.9275 16.9662 7.9625 16.9837 7.9975C16.9925 8.0325 17.0013 8.0675 17.0013 8.1025V9.52875C17.0013 9.56375 16.9837 9.59875 16.9575 9.61625C16.8787 9.63375 16.835 9.63375 16.8 9.61625C16.5375 9.47625 16.2575 9.38 15.96 9.31875C15.6362 9.24875 15.3125 9.205 14.98 9.205C14.805 9.19625 14.6212 9.2225 14.4541 9.26625C14.3412 9.2925 14.2441 9.35375 14.1829 9.44125C14.1391 9.51125 14.1129 9.59875 14.1129 9.6775C14.1129 9.75625 14.1479 9.835 14.2013 9.905C14.28 10.0012 14.3841 10.08 14.4987 10.1412C14.6991 10.2462 14.91 10.3425 15.1191 10.43C15.5925 10.5875 16.0475 10.8062 16.4675 11.0687C16.7563 11.2516 16.9925 11.4975 17.1579 11.795C17.2979 12.0732 17.3679 12.3812 17.3591 12.6954C17.3688 13.1075 17.2463 13.5179 17.0188 13.86Z" fill="#111111"/>
</svg>
