<svg width="21" height="21" viewBox="0 0 21 21" fill="none" xmlns="http://www.w3.org/2000/svg">
<g clip-path="url(#clip0_284_50)">
<mask id="mask0_284_50" style="mask-type:luminance" maskUnits="userSpaceOnUse" x="0" y="0" width="21" height="21">
<path d="M0 0H21V21H0V0Z" fill="white"/>
</mask>
<g mask="url(#mask0_284_50)">
<path d="M20.5004 7.67609e-07H0.498751C0.366394 0.000232567 0.239537 0.0529738 0.146028 0.146647C0.0525193 0.240319 5.65987e-07 0.367268 7.68964e-07 0.499626V20.5013C-0.000114497 20.5669 0.01273 20.6319 0.0377977 20.6926C0.0628654 20.7533 0.0996631 20.8084 0.14608 20.8548C0.192498 20.9012 0.247622 20.938 0.308291 20.9631C0.368961 20.9881 0.433982 21.001 0.499626 21.0009H20.5012C20.5669 21.0009 20.6318 20.988 20.6924 20.9628C20.7531 20.9377 20.8081 20.9009 20.8545 20.8545C20.9009 20.8081 20.9377 20.7531 20.9628 20.6924C20.988 20.6318 21.0009 20.5669 21.0009 20.5013V0.498751C21.0008 0.433139 20.9877 0.368192 20.9625 0.307619C20.9373 0.247046 20.9004 0.192032 20.8539 0.145719C20.8074 0.0994054 20.7523 0.0626997 20.6916 0.0376974C20.631 0.0126951 20.566 -0.00011424 20.5004 7.67609e-07ZM12.5003 11.2228H10.0004V18.9998H8.00012V11.2228H5.50025V9.49988H12.5003V11.2228ZM13.0602 18.5552V16.4771C13.0602 16.4771 14.196 17.3329 15.5584 17.3329C16.9207 17.3329 16.8682 16.4421 16.8682 16.3196C16.8682 15.0272 13.0078 15.0273 13.0078 12.1625C13.0078 8.267 18.6331 9.80438 18.6331 9.80438L18.5631 11.6559C18.5631 11.6559 17.6199 11.0268 16.5541 11.0268C15.4884 11.0268 15.1042 11.5343 15.1042 12.075C15.1042 13.4724 18.9997 13.3332 18.9997 16.1455C18.9997 20.4767 13.0602 18.5561 13.0602 18.5561V18.5552Z" fill="#111111"/>
</g>
</g>
<defs>
<clipPath id="clip0_284_50">
<rect width="21" height="21" rx="3" fill="white"/>
</clipPath>
</defs>
</svg>
