<svg width="19" height="21" viewBox="0 0 19 21" fill="none" xmlns="http://www.w3.org/2000/svg">
<path d="M18.6875 14.7V4.89956L10.3006 0V3.76294L13.5858 5.68706C13.7157 5.775 13.7157 5.94956 13.5858 5.99419L9.69425 8.26875C9.56431 8.35669 9.43569 8.31206 9.34906 8.26875L5.4575 5.99419C5.32756 5.94956 5.32756 5.73169 5.4575 5.68706L8.744 3.76294V0L0.3125 4.89956V14.7V14.6567V14.7L3.51237 12.8192V8.96831C3.51237 8.83706 3.68431 8.75044 3.77094 8.79375L7.6625 11.0683C7.79244 11.1562 7.83575 11.2442 7.83575 11.3754V15.9246C7.83575 16.0558 7.6625 16.1438 7.57587 16.1004L4.29069 14.175L1.09081 16.0558L9.47769 21L17.8659 16.1004L14.666 14.2183L11.3821 16.1438C11.2522 16.2317 11.1222 16.1437 11.1222 15.9692V11.4187C11.1222 11.2875 11.2089 11.1562 11.2955 11.1129L15.1871 8.83706C15.317 8.75044 15.4456 8.83706 15.4456 9.01294V12.8625L18.6875 14.7Z" fill="#111111"/>
</svg>
