<svg width="22" height="21" viewBox="0 0 22 21" fill="none" xmlns="http://www.w3.org/2000/svg">
<g clip-path="url(#clip0_284_64)">
<path d="M17.4306 0.262512H5.46933C4.27071 0.262512 3.12119 0.738659 2.27365 1.58621C1.4261 2.43375 0.949951 3.58327 0.949951 4.78189L0.949951 16.2181C0.949951 17.4168 1.4261 18.5663 2.27365 19.4138C3.12119 20.2614 4.27071 20.7375 5.46933 20.7375H17.4306C18.6292 20.7375 19.7787 20.2614 20.6263 19.4138C21.4738 18.5663 21.95 17.4168 21.95 16.2181V4.78189C21.95 3.58327 21.4738 2.43375 20.6263 1.58621C19.7787 0.738659 18.6292 0.262512 17.4306 0.262512ZM12.0878 14.6921H10.0867C9.9467 14.6921 9.84695 14.6869 9.79095 14.5933C9.60283 14.2266 9.4147 13.8626 9.22745 13.5013C9.03383 13.1294 8.83431 12.7607 8.62895 12.3953C8.4156 12.017 8.20646 11.6363 8.00158 11.2534H7.98758C7.79792 11.6317 7.60307 12.0074 7.40308 12.3804C7.20183 12.7558 7.00145 13.1294 6.80458 13.5004C6.60788 13.8717 6.40633 14.2404 6.19995 14.6064C6.16145 14.6913 6.09583 14.7 6.00133 14.7H4.07195C4.03433 14.7 4.01333 14.7149 4.00895 14.6773C4.00389 14.6429 4.01134 14.6078 4.02995 14.5784L6.74858 10.1115L4.09995 5.63326C4.07108 5.59564 4.0667 5.56501 4.08595 5.53964C4.09631 5.52749 4.10941 5.51798 4.12416 5.51189C4.13892 5.50581 4.15492 5.50332 4.17083 5.50464H6.15708C6.20036 5.50284 6.24355 5.50999 6.28395 5.52564C6.31748 5.5449 6.34621 5.57153 6.36795 5.60351C6.53683 5.97976 6.72495 6.35514 6.93145 6.73051C7.13795 7.10589 7.34708 7.47689 7.55795 7.84351C7.76883 8.21014 7.96395 8.58114 8.14245 8.95651H8.15645C8.34283 8.57151 8.5327 8.19614 8.72695 7.82951C8.9212 7.46289 9.11808 7.09451 9.31845 6.72351C9.52058 6.35164 9.71483 5.98239 9.90295 5.61751C9.9134 5.58233 9.93268 5.5504 9.95895 5.52476C9.99388 5.50737 10.033 5.50009 10.0718 5.50376H11.9172C11.938 5.49871 11.9599 5.50203 11.9782 5.513C11.9965 5.52397 12.0098 5.54171 12.0152 5.56239C12.0189 5.57726 12.0183 5.59287 12.0135 5.60742C12.0087 5.62197 11.9999 5.63487 11.9881 5.64464L11.989 5.64814L9.36833 9.97326L12.1718 14.5661C12.1902 14.5985 12.1946 14.6361 12.1858 14.672C12.1771 14.7035 12.1447 14.6825 12.0878 14.6921ZM18.8087 14.3246C18.3507 14.5154 17.8738 14.6571 17.386 14.7473C16.9395 14.8302 16.4864 14.8726 16.0323 14.8741C15.3841 14.8837 14.7419 14.7492 14.152 14.4804C13.6023 14.2259 13.1429 13.8106 12.8342 13.2895C12.495 12.6815 12.3291 11.992 12.3547 11.2963C12.3495 10.6497 12.5149 10.0131 12.8342 9.45089C13.1632 8.87811 13.6469 8.40959 14.2298 8.09901C14.9665 7.71404 15.7955 7.54079 16.6247 7.59851C16.7 7.60289 16.7892 7.60989 16.8925 7.61951V4.84401C16.8925 4.77839 16.9205 4.74514 16.9773 4.74514H18.7518C18.7715 4.74239 18.7915 4.74757 18.8075 4.75954C18.8234 4.77151 18.8339 4.7893 18.8367 4.80901C18.8376 4.81598 18.8376 4.82304 18.8367 4.83001V13.1574C18.8367 13.3175 18.8437 13.4908 18.8577 13.6789C18.8717 13.8661 18.884 14.035 18.8927 14.1855C18.8945 14.2145 18.8875 14.2433 18.8725 14.2682C18.8574 14.2931 18.8352 14.3128 18.8087 14.3246ZM16.6588 9.23914C16.7376 9.24701 16.8155 9.26101 16.8916 9.28114V13.1268C16.7907 13.1568 16.6868 13.1756 16.5818 13.1828C16.4599 13.1926 16.3376 13.1973 16.2152 13.1968C15.9687 13.1979 15.7235 13.1598 15.489 13.0839C15.2672 13.0141 15.0647 12.8937 14.8975 12.7321C14.723 12.5563 14.5884 12.3451 14.5028 12.1126C14.398 11.8237 14.3478 11.5178 14.355 11.2105C14.3365 10.8189 14.4372 10.4308 14.6437 10.0975C14.8301 9.82101 15.0847 9.59789 15.3831 9.44914C15.6893 9.29776 16.0271 9.21989 16.3692 9.22339C16.4663 9.22514 16.5626 9.22951 16.6588 9.23914Z" fill="#111111"/>
</g>
<defs>
<clipPath id="clip0_284_64">
<rect width="21" height="21" fill="white" transform="translate(0.949951)"/>
</clipPath>
</defs>
</svg>
