<svg width="21" height="19" viewBox="0 0 21 19" fill="none" xmlns="http://www.w3.org/2000/svg">
<path fill-rule="evenodd" clip-rule="evenodd" d="M20.9683 18.6445C21.1538 18.0245 20.5044 16.8372 19.5887 15.4688C17.1904 12.0018 12.7679 10.1592 10.3612 10.5048L10.3759 10.4099C11.1813 9.44315 12.0196 8.37096 12.8652 7.71614C14.4765 8.61201 15.8585 8.25086 17.2089 6.80355C17.8585 6.15386 18.1212 5.65019 18.0045 5.29241C17.8074 4.70104 17.333 4.41635 16.581 4.42378C15.8792 4.45364 14.7725 5.14803 14.3108 5.56258C12.6536 4.8179 11.4708 4.37985 10.7553 4.25574C8.05438 3.77393 5.71833 4.6355 3.75454 6.83267C2.69601 8.03721 2.21424 8.73805 2.31645 8.94255C2.40275 9.0583 2.66685 9.03131 2.94424 8.99366C3.61005 8.80277 5.15826 8.27474 5.15621 7.95695C5.16679 7.08024 5.20441 6.62911 6.20744 5.92749C7.69081 4.95784 8.80841 5.00907 10.6386 6.33626C11.3031 6.79612 11.8395 7.1368 12.1387 7.30451C10.8742 8.36136 9.79824 9.48449 9.00344 10.6872C5.82985 11.4959 1.30571 13.962 0.148286 16.8559C-0.0218062 17.2782 -0.060689 17.4887 0.111782 17.5932C1.91569 18.3376 6.01955 15.9236 8.58725 12.6511C11.0522 12.3709 17.9833 13.1501 17.5155 15.3666C17.314 15.8412 17.3186 15.9338 17.3475 16.0529C17.6037 16.7488 19.2806 18.0347 20.4208 18.6007C20.7349 18.7393 20.9172 18.754 20.9683 18.6445M15.2159 5.8544C15.0635 5.75465 15.9871 5.30849 16.6614 5.19746C17.3374 5.0911 17.6825 5.37821 17.4351 5.62094C16.8982 6.11641 15.473 6.03955 15.2159 5.8544ZM3.14132 16.3157C2.3096 16.7706 1.54376 17.0991 1.26522 16.6515C1.17027 15.958 1.69589 15.2425 2.83473 14.5052C4.14862 13.6632 5.56932 13.1174 7.08345 12.8262L7.25133 12.848C6.13759 14.1867 4.702 15.4263 3.14132 16.3157V16.3157ZM4.92989 6.47505C4.74737 6.77434 4.63056 7.07372 4.57949 7.37301C4.52839 7.61393 4.4626 7.78177 4.37507 7.8768C4.19255 8.0665 4.04658 8.14681 3.93702 8.11756C3.86406 8.11026 3.84945 8.0665 3.89326 7.99345C3.95892 7.8839 4.10502 7.57013 4.32392 7.05173C4.55029 6.56992 4.74737 6.29975 4.92259 6.23417C5.04674 6.19762 5.04674 6.27793 4.92989 6.47505V6.47505ZM9.18596 4.41635C9.89401 4.40179 10.6971 4.56967 11.6023 4.92015C12.1061 5.11727 12.7703 5.40906 13.6024 5.8108C14.4494 6.1831 15.0553 6.38736 15.4276 6.42386C15.5078 6.48961 15.4712 6.51882 15.3181 6.51882C14.632 6.48231 13.9747 6.3363 13.3397 6.08085L11.5367 5.24138C10.7188 4.88365 9.92321 4.6355 9.14945 4.4894C9.09101 4.46012 9.10561 4.4383 9.18596 4.4164V4.41635ZM15.2742 12.3006C14.2888 11.8115 13.1719 11.4757 11.9235 11.2786C10.4853 11.191 9.76264 11.1107 9.74073 11.0449C9.72609 10.9866 9.82104 10.9355 10.0328 10.899C11.8089 10.7172 13.7643 11.2756 15.8145 12.4247C16.3894 12.7977 15.9203 12.6362 15.2742 12.3006ZM17.5081 13.7314C17.3695 13.578 17.333 13.527 17.384 13.5635C17.6322 13.7241 17.8878 13.9723 18.1577 14.3155C18.5594 14.8118 18.6835 15.228 18.5448 15.571L18.4644 15.6441C18.3988 15.6368 18.3257 15.5127 18.2527 15.2645C18.1101 14.6015 18.1222 14.4075 17.5081 13.7314V13.7314ZM18.4207 16.3302C18.2695 15.9974 18.4531 15.7136 18.6615 16.0529L19.1799 16.8267C19.2529 16.9217 19.2601 16.9727 19.2089 16.9655C19.0001 16.9669 18.6002 16.6503 18.4207 16.3302H18.4207ZM11.0914 1.15319C10.8139 1.58394 10.7117 2.00008 10.7919 2.4015C10.8649 2.78114 11.0766 3.08039 11.4343 3.29208C11.7775 3.50388 12.3104 3.57681 13.0479 3.51844C13.9895 3.45269 14.464 3.25557 14.4714 2.93434C14.5224 2.40154 14.3179 1.81748 13.858 1.197C13.3616 0.532667 12.8288 0.226034 12.2519 0.291782C11.8066 0.350148 11.4198 0.634878 11.0914 1.15319V1.15319ZM12.303 1.37222C12.1456 1.24384 12.2034 1.00865 12.376 0.912267L12.6827 0.934169C12.8068 1.01448 12.8943 1.10943 12.9383 1.23354C13.0584 1.5871 12.5304 1.52557 12.303 1.37222H12.303ZM13.69 2.90522C13.7705 2.92712 13.7996 2.96375 13.7924 3.00025C13.7779 3.06587 13.6389 3.10964 13.3836 3.13146L13.0259 3.10964C12.8142 3.06214 13.0637 2.87011 13.4201 2.87609L13.69 2.90522H13.69Z" fill="#111111"/>
</svg>
