<svg width="19" height="24" viewBox="0 0 19 24" fill="none" xmlns="http://www.w3.org/2000/svg">
<g filter="url(#filter0_d_265_40)">
<path fill-rule="evenodd" clip-rule="evenodd" d="M8.94166 5.94643C9.10403 5.94643 9.18522 6.03042 9.18522 6.19838C9.18522 6.25438 9.16002 6.30477 9.10963 6.34957C8.63369 6.79751 8.39573 7.28744 8.39573 7.81937V10.6834H7.79101C7.58383 10.6834 7.40746 10.759 7.26188 10.9102C7.12189 11.0558 7.0519 11.2349 7.0519 11.4477C7.0519 11.6549 7.14429 11.8537 7.32907 12.044C7.44106 12.1504 7.59503 12.2036 7.79101 12.2036H8.39573V15.0172C8.39573 15.2971 8.49092 15.5268 8.68129 15.7059C8.77088 15.7956 8.87727 15.8655 9.00046 15.916C9.12363 15.972 9.28881 16 9.49599 16C9.70315 16 9.92713 15.8796 10.1679 15.6388C10.3135 15.4931 10.3863 15.286 10.3863 15.0172V12.2036H12.3768V15.0172C12.3768 15.2917 12.4748 15.5211 12.6708 15.7059C12.7604 15.7956 12.8667 15.8655 12.9899 15.916C13.1131 15.972 13.2419 16 13.3763 16C13.5163 16 13.645 15.9747 13.7626 15.9242C14.1657 15.7451 14.3674 15.4428 14.3674 15.0172V6.9123C14.3674 6.15081 14.1043 5.54888 13.5779 5.10652C13.0459 4.65299 12.3152 4.42623 11.3857 4.42623H7.55583C6.87273 4.42623 6.28761 4.66979 5.80047 5.15692C5.69052 5.26688 5.59297 5.38183 5.50784 5.50176C6.12689 5.94483 5.29006 7.24409 5.06976 7.32717V7.41623C5.06976 7.6906 5.16775 7.92296 5.36372 8.11334C5.44771 8.20294 5.5485 8.27293 5.66609 8.32332C5.78928 8.3737 5.91805 8.3989 6.05243 8.3989C6.19242 8.3989 6.32401 8.3737 6.44718 8.32332C6.85594 8.15534 7.0603 7.85297 7.0603 7.41623V6.93749C7.0603 6.67434 7.17229 6.41676 7.39627 6.1648C7.52504 6.01922 7.71542 5.94643 7.96739 5.94643H8.94166ZM5.20867 6.07466L5.23292 6.05042C5.23039 6.04346 5.22787 6.0364 5.22534 6.02926C5.21963 6.04432 5.21407 6.05948 5.20867 6.07466ZM12.3768 10.6834H10.3863V6.93749C10.3863 6.66314 10.4815 6.43076 10.6718 6.24038C10.7614 6.15081 10.865 6.08081 10.9826 6.03042C11.1058 5.97442 11.2709 5.94643 11.4781 5.94643C11.6909 5.94643 11.9205 6.06961 12.1668 6.31597C12.3068 6.45596 12.3768 6.66594 12.3768 6.94589V10.6834ZM12.6288 0C12.276 0 11.9653 0.184782 11.6965 0.554328L10.3779 2.3853C10.2827 2.51407 10.2351 2.65125 10.2351 2.79684C10.2351 2.93683 10.2827 3.0572 10.3779 3.15799C10.4731 3.25878 10.6158 3.30917 10.8062 3.30917C10.9126 3.30917 11.033 3.26438 11.1674 3.17478L13.0151 1.88135C13.3679 1.64059 13.5443 1.30744 13.5443 0.881879C13.5443 0.669118 13.4267 0.447938 13.1915 0.218379C13.0515 0.0727929 12.8639 0 12.6288 0Z" fill="#54006B"/>
<path fill-rule="evenodd" clip-rule="evenodd" d="M6.00876 9.20837C6.0036 9.21574 5.99848 9.22315 5.99341 9.23058C5.91829 9.34614 5.88072 9.47903 5.88072 9.62926C5.88072 9.78526 5.90962 9.92393 5.9674 10.0453C6.01939 10.1724 6.09451 10.2822 6.19274 10.3746C6.41809 10.5768 6.65786 10.6779 6.9121 10.6779C7.16633 10.6779 7.37144 10.6404 7.52746 10.5653C7.67767 10.4902 7.81058 10.3833 7.92614 10.2446C8.1688 9.95571 8.29014 9.56282 8.29014 9.06591C8.29014 8.41877 8.09657 7.84386 7.70946 7.34119C7.5939 7.19095 7.46967 7.06383 7.33678 6.95984L7.14077 6.80268C7.16585 7.13382 7.02607 8.01447 6.78835 8.33774C6.5911 8.60599 6.16415 9.0501 6.00876 9.20837ZM7.03268 6.71602L5.36938 5.38245C4.56624 4.7122 4.16467 3.91485 4.16467 2.99037C4.16467 2.22767 4.4449 1.58055 5.00536 1.04896C5.54849 0.540512 6.18119 0.286285 6.90343 0.286285H8.12547C8.33925 0.286285 8.52414 0.361384 8.68016 0.511618C8.83616 0.661852 8.91417 0.81785 8.91417 0.97963C8.91417 1.14141 8.89395 1.26853 8.85349 1.36098C8.80726 1.45921 8.7466 1.54587 8.67149 1.62099C8.51549 1.77699 8.33347 1.85499 8.12547 1.85499H7.39744C7.04499 1.85499 6.76187 1.94455 6.54808 2.12368C6.3343 2.30857 6.22741 2.52525 6.22741 2.77369C6.22741 3.18393 6.40941 3.55372 6.77342 3.88306L8.25548 5.09644C8.96039 5.66846 9.4573 6.20581 9.7462 6.70848C10.0698 7.28051 10.2315 8.01431 10.2315 8.90989C10.2315 9.95571 9.94553 10.7733 9.3735 11.3626C8.81305 11.9462 8.03013 12.238 7.02477 12.238C6.08296 12.238 5.34338 12.0011 4.80603 11.5273C4.26868 11.0593 4 10.4151 4 9.59458C4 8.90124 4.14445 8.32922 4.43335 7.87853C4.72802 7.41628 5.11226 7.18517 5.58606 7.18517C5.86431 7.18517 6.07837 7.25214 6.22827 7.38609L7.03268 6.71602Z" fill="#54006B"/>
</g>
<defs>
<filter id="filter0_d_265_40" x="0" y="0" width="18.3674" height="24" filterUnits="userSpaceOnUse" color-interpolation-filters="sRGB">
<feFlood flood-opacity="0" result="BackgroundImageFix"/>
<feColorMatrix in="SourceAlpha" type="matrix" values="0 0 0 0 0 0 0 0 0 0 0 0 0 0 0 0 0 0 127 0" result="hardAlpha"/>
<feOffset dy="4"/>
<feGaussianBlur stdDeviation="2"/>
<feComposite in2="hardAlpha" operator="out"/>
<feColorMatrix type="matrix" values="0 0 0 0 0 0 0 0 0 0 0 0 0 0 0 0 0 0 0.25 0"/>
<feBlend mode="normal" in2="BackgroundImageFix" result="effect1_dropShadow_265_40"/>
<feBlend mode="normal" in="SourceGraphic" in2="effect1_dropShadow_265_40" result="shape"/>
</filter>
</defs>
</svg>
