<svg width="19" height="19" viewBox="0 0 19 19" fill="none" xmlns="http://www.w3.org/2000/svg">
<path d="M9.49745 6.33198C7.75305 6.33198 6.32949 7.75557 6.32949 9.5C6.32949 11.2444 7.75305 12.668 9.49745 12.668C11.2418 12.668 12.6654 11.2444 12.6654 9.5C12.6654 7.75557 11.2418 6.33198 9.49745 6.33198ZM18.9989 9.5C18.9989 8.18811 19.0108 6.88811 18.9371 5.5786C18.8635 4.05757 18.5165 2.70766 17.4043 1.59541C16.2897 0.480781 14.9421 0.136173 13.4211 0.0624986C12.1093 -0.0111762 10.8093 0.000706907 9.49982 0.000706907C8.18796 0.000706907 6.88798 -0.0111762 5.5785 0.0624986C4.0575 0.136173 2.70761 0.483158 1.59538 1.59541C0.480772 2.71004 0.136171 4.05757 0.0624975 5.5786C-0.0111759 6.89049 0.000706894 8.19049 0.000706894 9.5C0.000706894 10.8095 -0.0111759 12.1119 0.0624975 13.4214C0.136171 14.9424 0.483149 16.2923 1.59538 17.4046C2.70999 18.5192 4.0575 18.8638 5.5785 18.9375C6.89036 19.0112 8.19034 18.9993 9.49982 18.9993C10.8117 18.9993 12.1117 19.0112 13.4211 18.9375C14.9421 18.8638 16.292 18.5168 17.4043 17.4046C18.5189 16.29 18.8635 14.9424 18.9371 13.4214C19.0132 12.1119 18.9989 10.8119 18.9989 9.5V9.5ZM9.49745 14.3744C6.80005 14.3744 4.62312 12.1974 4.62312 9.5C4.62312 6.80255 6.80005 4.62558 9.49745 4.62558C12.1948 4.62558 14.3718 6.80255 14.3718 9.5C14.3718 12.1974 12.1948 14.3744 9.49745 14.3744ZM14.5714 5.56434C13.9416 5.56434 13.433 5.05575 13.433 4.42595C13.433 3.79615 13.9416 3.28755 14.5714 3.28755C15.2012 3.28755 15.7098 3.79615 15.7098 4.42595C15.71 4.5755 15.6806 4.72361 15.6235 4.86181C15.5664 5.00001 15.4825 5.12558 15.3768 5.23133C15.271 5.33708 15.1455 5.42093 15.0073 5.47807C14.8691 5.53521 14.721 5.56453 14.5714 5.56434V5.56434Z" fill="black"/>
</svg>
