<svg width="28" height="38" viewBox="0 0 28 38" fill="none" xmlns="http://www.w3.org/2000/svg">
<g filter="url(#filter0_d_264_1854)">
<path fill-rule="evenodd" clip-rule="evenodd" d="M13.2657 11.1495C13.5701 11.1495 13.7223 11.307 13.7223 11.622C13.7223 11.727 13.6751 11.8214 13.5806 11.9054C12.6882 12.7453 12.2421 13.664 12.2421 14.6613V20.0314H11.1082C10.7197 20.0314 10.389 20.1731 10.1161 20.4566C9.8536 20.7295 9.72236 21.0655 9.72236 21.4645C9.72236 21.8529 9.8956 22.2256 10.2421 22.5826C10.452 22.782 10.7407 22.8818 11.1082 22.8818H12.2421V28.1572C12.2421 28.6821 12.4205 29.1127 12.7775 29.4486C12.9454 29.6168 13.1449 29.7478 13.3759 29.8425C13.6069 29.9475 13.9166 30 14.305 30C14.6935 30 15.1134 29.7742 15.5648 29.3227C15.8378 29.0496 15.9743 28.6612 15.9743 28.1572V22.8818H19.7066V28.1572C19.7066 28.6718 19.8903 29.1021 20.2578 29.4486C20.4257 29.6168 20.6252 29.7478 20.8562 29.8425C21.0871 29.9475 21.3286 30 21.5806 30C21.843 30 22.0845 29.9527 22.305 29.858C23.0608 29.5221 23.4389 28.9552 23.4389 28.1572V12.9606C23.4389 11.5328 22.9455 10.4042 21.9585 9.57473C20.9612 8.72435 19.5911 8.29918 17.8483 8.29918H10.6672C9.38643 8.29918 8.28932 8.75585 7.37594 9.66922C7.16977 9.8754 6.98686 10.0909 6.82725 10.3158C7.98797 11.1466 6.41892 13.5827 6.00586 13.7384V13.9054C6.00586 14.4199 6.18959 14.8556 6.55702 15.2125C6.71451 15.3805 6.90349 15.5117 7.12397 15.6062C7.35495 15.7007 7.59639 15.7479 7.84836 15.7479C8.11084 15.7479 8.35756 15.7007 8.58851 15.6062C9.35493 15.2913 9.73811 14.7243 9.73811 13.9054V13.0078C9.73811 12.5144 9.94809 12.0314 10.3681 11.559C10.6095 11.286 10.9665 11.1495 11.4389 11.1495H13.2657ZM6.26631 11.39L6.31177 11.3445C6.30704 11.3315 6.3023 11.3183 6.29757 11.3049C6.28686 11.3331 6.27643 11.3615 6.26631 11.39ZM19.7066 20.0314H15.9743V13.0078C15.9743 12.4934 16.1528 12.0577 16.5097 11.7007C16.6777 11.5328 16.8719 11.4015 17.0924 11.307C17.3234 11.202 17.6331 11.1495 18.0215 11.1495C18.4205 11.1495 18.8509 11.3805 19.3129 11.8424C19.5753 12.1049 19.7066 12.4986 19.7066 13.0235V20.0314ZM20.179 0C19.5176 0 18.9349 0.346467 18.431 1.03937L15.9586 4.47243C15.7801 4.71387 15.6908 4.9711 15.6908 5.24407C15.6908 5.50655 15.7801 5.73224 15.9586 5.92122C16.137 6.11021 16.4048 6.2047 16.7617 6.2047C16.9612 6.2047 17.1869 6.12071 17.4389 5.95272L20.9034 3.52752C21.5648 3.0761 21.8955 2.45145 21.8955 1.65352C21.8955 1.2546 21.6751 0.839885 21.2341 0.40946C20.9717 0.136487 20.6199 0 20.179 0Z" fill="#54006B"/>
<path fill-rule="evenodd" clip-rule="evenodd" d="M7.76643 17.2657C7.75675 17.2795 7.74714 17.2934 7.73764 17.3074C7.5968 17.524 7.52636 17.7732 7.52636 18.0549C7.52636 18.3474 7.58053 18.6074 7.68888 18.8349C7.78636 19.0732 7.9272 19.2791 8.11138 19.4524C8.53392 19.8316 8.98349 20.0212 9.46019 20.0212C9.93687 20.0212 10.3215 19.9508 10.614 19.8099C10.8956 19.6691 11.1448 19.4687 11.3615 19.2087C11.8165 18.667 12.044 17.9303 12.044 16.9986C12.044 15.7852 11.6811 14.7072 10.9552 13.7647C10.7386 13.4831 10.5056 13.2447 10.2565 13.0497L9.88894 12.7551C9.93598 13.3759 9.67388 15.0272 9.22815 15.6333C8.85832 16.1362 8.05779 16.969 7.76643 17.2657ZM9.68627 12.5926L6.56759 10.0921C5.0617 8.8354 4.30876 7.34035 4.30876 5.60696C4.30876 4.1769 4.83419 2.96355 5.88505 1.96683C6.90342 1.01348 8.08973 0.536804 9.44393 0.536804H11.7352C12.1361 0.536804 12.4828 0.677614 12.7753 0.959303C13.0678 1.24099 13.2141 1.53349 13.2141 1.83683C13.2141 2.14016 13.1761 2.37852 13.1003 2.55185C13.0136 2.73603 12.8999 2.89853 12.759 3.03937C12.4665 3.33187 12.1253 3.47813 11.7352 3.47813H10.3702C9.70936 3.47813 9.17851 3.64605 8.77766 3.98191C8.37681 4.32859 8.1764 4.73486 8.1764 5.20069C8.1764 5.96989 8.51765 6.66324 9.20016 7.28076L11.979 9.55585C13.3007 10.6284 14.2324 11.6359 14.7741 12.5784C15.3808 13.651 15.6841 15.0268 15.6841 16.7061C15.6841 18.667 15.1479 20.1999 14.0753 21.305C13.0245 22.3992 11.5565 22.9463 9.67144 22.9463C7.90556 22.9463 6.51883 22.5021 5.51131 21.6137C4.50378 20.7362 4 19.5282 4 17.9899C4 16.6898 4.27085 15.6173 4.81254 14.7723C5.36504 13.9056 6.08549 13.4722 6.97386 13.4722C7.49558 13.4722 7.89694 13.5978 8.17801 13.8489L9.68627 12.5926Z" fill="#54006B"/>
</g>
<defs>
<filter id="filter0_d_264_1854" x="0" y="0" width="27.439" height="38" filterUnits="userSpaceOnUse" color-interpolation-filters="sRGB">
<feFlood flood-opacity="0" result="BackgroundImageFix"/>
<feColorMatrix in="SourceAlpha" type="matrix" values="0 0 0 0 0 0 0 0 0 0 0 0 0 0 0 0 0 0 127 0" result="hardAlpha"/>
<feOffset dy="4"/>
<feGaussianBlur stdDeviation="2"/>
<feComposite in2="hardAlpha" operator="out"/>
<feColorMatrix type="matrix" values="0 0 0 0 0 0 0 0 0 0 0 0 0 0 0 0 0 0 0.25 0"/>
<feBlend mode="normal" in2="BackgroundImageFix" result="effect1_dropShadow_264_1854"/>
<feBlend mode="normal" in="SourceGraphic" in2="effect1_dropShadow_264_1854" result="shape"/>
</filter>
</defs>
</svg>
