<svg width="21" height="21" viewBox="0 0 21 21" fill="none" xmlns="http://www.w3.org/2000/svg">
<g clip-path="url(#clip0_8_1286)">
<path d="M0 15.5072L1.77384 18.5732C1.95022 18.9242 2.22063 19.2194 2.55492 19.4258C2.88922 19.6321 3.27426 19.7416 3.66712 19.742H15.4422L12.9983 15.5072H0ZM21 15.5275C20.9991 15.1202 20.8816 14.7217 20.6614 14.3791L13.7603 2.38548C13.5803 2.04477 13.3108 1.75964 12.9807 1.56084C12.6507 1.36204 12.2726 1.25712 11.8873 1.25739H8.24053L18.898 19.721L20.58 16.8125C20.9081 16.2553 21.0007 16.0092 21.0007 15.5275H21ZM11.2619 12.4996L6.50081 4.25185L1.73644 12.4996H11.2619Z" fill="#111111"/>
</g>
<defs>
<clipPath id="clip0_8_1286">
<rect width="21" height="21" fill="white"/>
</clipPath>
</defs>
</svg>
